<svg width="45" height="45" viewBox="0 0 45 45" fill="none" xmlns="http://www.w3.org/2000/svg">
<g clip-path="url(#clip0)">
<path d="M2.81251 3.06187C-0.723743 6.735 7.42347e-06 10.6369 7.42347e-06 22.4906C7.42347e-06 32.3344 -1.71749 42.2025 7.27126 44.5256C10.0781 45.2475 34.9481 45.2475 37.7513 44.5219C41.4938 43.5562 44.5388 40.5206 44.955 35.2275C45.0131 34.4887 45.0131 10.5056 44.9531 9.75187C44.5106 4.11375 41.04 0.864371 36.4669 0.206245C35.4188 0.0543705 35.2088 0.00937044 29.8313 -4.55797e-06C10.7569 0.00937044 6.57563 -0.840005 2.81251 3.06187V3.06187Z" fill="url(#paint0_linear)"/>
<path d="M22.4963 5.88564C15.6881 5.88564 9.22314 5.28001 6.75377 11.6175C5.73377 14.235 5.88189 17.6344 5.88189 22.5019C5.88189 26.7731 5.74502 30.7875 6.75377 33.3844C9.21752 39.7256 15.735 39.1181 22.4925 39.1181C29.0119 39.1181 35.7338 39.7969 38.2331 33.3844C39.255 30.7406 39.105 27.3919 39.105 22.5019C39.105 16.0106 39.4631 11.82 36.315 8.67376C33.1275 5.48626 28.8169 5.88564 22.4888 5.88564H22.4963ZM21.0075 8.88001C35.2088 8.85751 37.0163 7.27877 36.0188 29.2106C35.6644 36.9675 29.7581 36.1163 22.4981 36.1163C9.26064 36.1163 8.88002 35.7375 8.88002 22.4944C8.88002 9.09751 9.93002 8.88751 21.0075 8.87626V8.88001ZM31.365 11.6381C30.2644 11.6381 29.3719 12.5306 29.3719 13.6313C29.3719 14.7319 30.2644 15.6244 31.365 15.6244C32.4656 15.6244 33.3581 14.7319 33.3581 13.6313C33.3581 12.5306 32.4656 11.6381 31.365 11.6381V11.6381ZM22.4963 13.9688C17.7844 13.9688 13.965 17.79 13.965 22.5019C13.965 27.2138 17.7844 31.0331 22.4963 31.0331C27.2081 31.0331 31.0256 27.2138 31.0256 22.5019C31.0256 17.79 27.2081 13.9688 22.4963 13.9688V13.9688ZM22.4963 16.9631C29.8181 16.9631 29.8275 28.0406 22.4963 28.0406C15.1763 28.0406 15.165 16.9631 22.4963 16.9631Z" fill="white"/>
</g>
<defs>
<linearGradient id="paint0_linear" x1="2.8988" y1="42.1258" x2="44.7215" y2="5.9287" gradientUnits="userSpaceOnUse">
<stop stop-color="#8E7F42"/>
<stop offset="0.5" stop-color="#FF543E"/>
<stop offset="1" stop-color="#C837AB"/>
</linearGradient>
<clipPath id="clip0">
<rect width="45" height="45" fill="white"/>
</clipPath>
</defs>
</svg>
