<?xml version="1.0" standalone="no"?>
<!DOCTYPE svg PUBLIC "-//W3C//DTD SVG 20010904//EN"
 "http://www.w3.org/TR/2001/REC-SVG-20010904/DTD/svg10.dtd">
<svg version="1.0" xmlns="http://www.w3.org/2000/svg"
 width="512.000000pt" height="512.000000pt" viewBox="0 0 512.000000 512.000000"
 preserveAspectRatio="xMidYMid meet">
<metadata>
Created by potrace 1.14, written by Peter Selinger 2001-2017
</metadata>
<g transform="translate(0.000000,512.000000) scale(0.100000,-0.100000)"
fill="#000000" stroke="none">
<path d="M1210 5069 c-14 -6 -51 -33 -84 -61 l-58 -51 -82 19 c-94 23 -131 18
-160 -22 -26 -37 -23 -74 14 -158 l32 -73 -46 -73 c-47 -76 -53 -100 -36 -144
16 -43 62 -59 149 -51 42 4 79 9 82 11 4 2 31 -25 60 -61 61 -72 92 -90 144
-81 46 9 65 39 85 135 l16 76 84 36 c92 39 112 60 112 114 0 45 -19 66 -104
116 -51 30 -68 45 -68 62 -2 56 -12 134 -21 159 -6 15 -26 34 -44 42 -38 18
-41 18 -75 5z"/>
<path d="M3839 5015 c-199 -40 -365 -130 -515 -279 -39 -39 -86 -93 -105 -121
l-34 -50 -165 0 c-91 -1 -196 -4 -235 -8 -38 -5 -86 -10 -107 -12 -20 -2 -64
-9 -97 -15 -33 -6 -73 -13 -88 -16 -250 -44 -653 -190 -943 -341 -595 -310
-1002 -782 -1225 -1423 -33 -96 -98 -332 -109 -397 -3 -16 -8 -44 -11 -63 -3
-19 -7 -46 -10 -60 -3 -14 -8 -47 -11 -75 -3 -27 -7 -61 -9 -75 -2 -14 -7 -70
-10 -125 -7 -91 -11 -107 -46 -171 -87 -158 -119 -298 -114 -489 4 -123 25
-236 62 -331 19 -48 19 -56 6 -115 -14 -68 -19 -231 -9 -289 49 -260 163 -389
416 -470 178 -57 451 -60 685 -6 61 14 190 61 255 94 l75 37 80 -27 c108 -36
171 -45 307 -42 330 6 770 164 977 350 87 78 161 213 161 293 0 12 16 31 43
49 63 45 120 101 160 160 100 146 87 305 -37 466 -18 23 -41 74 -54 120 -36
125 -106 268 -187 383 -69 96 -235 238 -345 293 -56 28 -50 21 -56 66 -2 22
-7 46 -9 54 -16 55 -24 349 -12 481 19 230 108 463 231 606 l19 22 38 -78 c90
-184 253 -293 462 -308 l82 -6 58 -63 c57 -62 129 -106 222 -135 63 -20 236
-15 338 10 179 43 375 134 522 244 53 39 129 119 194 203 21 26 71 145 86 203
9 35 18 95 20 134 2 61 6 74 26 90 50 39 132 124 161 165 73 106 125 259 135
401 16 235 -128 401 -372 428 -73 8 -80 11 -134 63 -88 83 -235 148 -396 175
-81 13 -309 13 -376 0z"/>
<path d="M331 4146 c-7 -8 -12 -59 -12 -130 -1 -100 -4 -116 -18 -117 -9 0
-74 -1 -144 -1 -98 0 -131 -4 -143 -15 -18 -19 -18 -38 2 -57 13 -13 42 -16
159 -16 l143 0 1 -116 c0 -123 7 -144 47 -144 34 0 41 23 39 148 l-1 112 136
0 c144 0 160 5 160 47 0 34 -25 41 -156 40 -66 0 -125 2 -130 6 -5 3 -9 54 -9
114 1 82 -2 112 -13 126 -18 20 -45 22 -61 3z"/>
<path d="M3232 2628 c-8 -8 -12 -52 -12 -130 l0 -118 -143 0 c-161 0 -183 -7
-172 -53 4 -15 10 -28 14 -29 3 0 69 -2 146 -4 77 -1 143 -3 148 -3 4 -1 7
-54 7 -120 0 -129 8 -149 54 -137 30 7 34 26 32 149 -1 80 2 100 14 106 8 4
67 6 130 5 126 -1 150 5 150 39 0 42 -16 47 -159 47 l-136 0 1 109 c0 59 -3
118 -7 130 -9 23 -47 29 -67 9z"/>
<path d="M4525 2625 c-16 -7 -48 -29 -70 -50 -22 -20 -55 -48 -73 -62 l-32
-25 -68 17 c-37 9 -76 19 -87 22 -64 15 -122 -6 -143 -53 -22 -46 -18 -65 36
-184 13 -30 25 -62 27 -70 1 -8 -23 -55 -53 -103 -69 -113 -72 -170 -9 -212
28 -18 57 -20 172 -11 l90 7 72 -85 c80 -94 107 -107 166 -82 38 15 65 48 72
87 3 13 12 56 21 95 15 70 17 72 57 89 23 10 61 26 84 36 24 11 47 19 52 19
23 0 61 63 61 99 0 52 -27 83 -121 137 -43 25 -81 50 -84 55 -3 4 -8 37 -11
71 -8 116 -15 153 -32 171 -36 41 -83 52 -127 32z"/>
<path d="M4099 993 c-23 -6 -26 -21 -25 -146 1 -59 -1 -108 -4 -108 -3 -1 -70
-2 -148 -3 -127 -1 -145 -3 -157 -20 -14 -18 -10 -45 9 -58 6 -4 75 -8 152 -8
105 0 143 -3 146 -12 2 -7 3 -60 2 -116 -2 -92 0 -106 18 -124 17 -17 22 -18
41 -5 20 13 22 24 25 136 l3 121 139 0 c140 0 148 2 155 39 7 38 -20 45 -159
46 l-131 0 -3 120 c-2 98 -5 122 -19 133 -9 6 -19 11 -22 11 -3 -1 -13 -3 -22
-6z"/>
</g>
</svg>
